<svg width="195" height="41" viewBox="0 0 195 41" fill="none" xmlns="http://www.w3.org/2000/svg">
<path d="M17.832 31.6836C16.6732 31.6836 15.8333 31.3906 15.3125 30.8047C14.9089 30.362 14.707 29.763 14.707 29.0078C14.707 28.4089 14.7982 27.7188 14.9805 26.9375C15.1628 26.1432 15.4297 25.1211 15.7812 23.8711C16.1328 22.6081 16.3932 21.5664 16.5625 20.7461C16.7448 19.9258 16.8359 19.1706 16.8359 18.4805C16.8359 17.6341 16.6602 16.9766 16.3086 16.5078C15.918 16.013 15.293 15.7656 14.4336 15.7656C13.9518 15.7656 13.5091 15.8177 13.1055 15.9219L9.90234 31H4.16016L9.58984 5.55078L15.5078 4.76953L13.5547 14.0078H13.8672C14.6615 14.0078 15.4102 13.7995 16.1133 13.3828C16.8164 12.9531 17.4349 12.3802 17.9688 11.6641C18.4635 10.987 18.8477 10.2383 19.1211 9.41797C19.4076 8.59766 19.5508 7.80339 19.5508 7.03516C19.5508 6.46224 19.4596 5.92188 19.2773 5.41406C19.1081 4.90625 18.8542 4.46354 18.5156 4.08594C17.7474 3.2526 16.6276 2.83594 15.1562 2.83594C13.5286 2.83594 12.0508 3.05729 10.7227 3.5C9.40755 3.92969 8.27474 4.56771 7.32422 5.41406C6.36068 6.26042 5.625 7.28906 5.11719 8.5C4.60938 9.71094 4.35547 11.0651 4.35547 12.5625C4.35547 13.3958 4.44661 14.0599 4.62891 14.5547C4.68099 14.724 4.74609 14.8737 4.82422 15.0039C4.8763 15.0951 4.90234 15.1862 4.90234 15.2773C3.45703 15.2773 2.40234 14.9909 1.73828 14.418C0.996094 13.793 0.625 12.7839 0.625 11.3906C0.625 10.5182 0.813802 9.65885 1.19141 8.8125C1.56901 7.95312 2.10286 7.1263 2.79297 6.33203C3.44401 5.57682 4.21875 4.8737 5.11719 4.22266C6.02865 3.55859 7.01172 2.98568 8.06641 2.50391C10.2799 1.5013 12.4805 1 14.668 1C16.1784 1 17.5065 1.17578 18.6523 1.52734C19.8112 1.86589 20.7812 2.34766 21.5625 2.97266C22.2917 3.55859 22.8385 4.23568 23.2031 5.00391C23.5677 5.75911 23.75 6.5599 23.75 7.40625C23.75 8.68229 23.3789 9.91927 22.6367 11.1172C21.8034 12.4453 20.7357 13.487 19.4336 14.2422C20.4622 14.5547 21.1849 15.056 21.6016 15.7461C21.9922 16.4102 22.1875 17.2435 22.1875 18.2461C22.1875 18.9883 22.1029 19.7826 21.9336 20.6289C21.7643 21.4622 21.5234 22.4518 21.2109 23.5977C20.8594 24.8737 20.6055 25.8503 20.4492 26.5273C20.306 27.1914 20.2344 27.8034 20.2344 28.3633C20.2344 28.9883 20.3711 29.5417 20.6445 30.0234C20.931 30.4922 21.3151 30.8177 21.7969 31C20.1953 31.4557 18.8737 31.6836 17.832 31.6836ZM30.1758 31.2344C28.2096 31.2344 26.6927 30.7396 25.625 29.75C24.4922 28.6953 23.9258 27.0742 23.9258 24.8867C23.9258 24.0664 24.0104 23.1549 24.1797 22.1523C24.3359 21.1497 24.5768 20.1471 24.9023 19.1445C25.2669 18.0247 25.7292 16.9635 26.2891 15.9609C26.862 14.9583 27.526 14.0729 28.2812 13.3047C30.026 11.5339 32.1745 10.6484 34.7266 10.6484C36.3542 10.6484 37.5391 11.0391 38.2812 11.8203C38.8542 12.4323 39.1406 13.3177 39.1406 14.4766C39.1406 15.6094 38.8932 16.6771 38.3984 17.6797C37.9036 18.6693 37.2201 19.5482 36.3477 20.3164C35.4753 21.0716 34.4857 21.6771 33.3789 22.1328C32.2721 22.5755 31.1263 22.8359 29.9414 22.9141C29.8763 23.5911 29.8438 24.125 29.8438 24.5156C29.8438 25.8177 30.0911 26.7161 30.5859 27.2109C31.0156 27.6536 31.7318 27.875 32.7344 27.875C34.1797 27.875 35.5013 27.4844 36.6992 26.7031C37.207 26.3776 37.6953 25.9935 38.1641 25.5508C38.6328 25.0951 39.1797 24.5221 39.8047 23.832H41.1719C39.9089 25.9674 38.457 27.6667 36.8164 28.9297C34.7982 30.4661 32.5846 31.2344 30.1758 31.2344ZM30.2539 21C30.9961 20.9479 31.7188 20.7331 32.4219 20.3555C33.125 19.9779 33.75 19.4831 34.2969 18.8711C34.8438 18.2461 35.2734 17.5495 35.5859 16.7812C35.8984 16 36.0547 15.2057 36.0547 14.3984C36.0547 13.8646 35.9766 13.4609 35.8203 13.1875C35.6771 12.901 35.4232 12.7578 35.0586 12.7578C34.5768 12.7578 34.0885 12.9922 33.5938 13.4609C33.112 13.9297 32.6432 14.5742 32.1875 15.3945C31.7708 16.1628 31.3932 17.0352 31.0547 18.0117C30.7161 18.9883 30.4492 19.9844 30.2539 21ZM45.5273 31.2344C43.5612 31.2344 42.0443 30.7396 40.9766 29.75C39.8438 28.6953 39.2773 27.0742 39.2773 24.8867C39.2773 24.0664 39.362 23.1549 39.5312 22.1523C39.6875 21.1367 39.9349 20.1276 40.2734 19.125C41.0677 16.6901 42.194 14.75 43.6523 13.3047C45.4492 11.5339 47.5781 10.6484 50.0391 10.6484C51.6406 10.6484 52.8255 11.0326 53.5938 11.8008C54.1927 12.4128 54.4922 13.2526 54.4922 14.3203C54.4922 15.2578 54.2839 15.987 53.8672 16.5078C53.4766 16.9896 52.9753 17.2305 52.3633 17.2305C51.9206 17.2305 51.4518 17.0742 50.957 16.7617C51.2826 15.9154 51.4453 15.1276 51.4453 14.3984C51.4453 13.8906 51.3477 13.4935 51.1523 13.207C50.9701 12.9076 50.6966 12.7578 50.332 12.7578C49.5508 12.7578 48.737 13.4479 47.8906 14.8281C47.1224 16.0521 46.4844 17.6081 45.9766 19.4961C45.4557 21.3451 45.1953 23.0182 45.1953 24.5156C45.1953 25.8177 45.4427 26.7161 45.9375 27.2109C46.3672 27.6536 47.0833 27.875 48.0859 27.875C49.5312 27.875 50.8529 27.4844 52.0508 26.7031C52.5586 26.3776 53.0469 25.9935 53.5156 25.5508C53.9844 25.0951 54.5312 24.5221 55.1562 23.832H56.5234C55.2604 25.9674 53.8086 27.6667 52.168 28.9297C50.1497 30.4661 47.9362 31.2344 45.5273 31.2344ZM61.8359 8.83203C61.4062 8.83203 60.9961 8.75391 60.6055 8.59766C60.2148 8.42839 59.8763 8.20052 59.5898 7.91406C59.3034 7.64062 59.0755 7.30859 58.9062 6.91797C58.75 6.52734 58.6719 6.11719 58.6719 5.6875C58.6719 5.25781 58.75 4.84766 58.9062 4.45703C59.0755 4.06641 59.3034 3.72135 59.5898 3.42188C59.8763 3.1224 60.2148 2.89453 60.6055 2.73828C60.9961 2.56901 61.4062 2.48438 61.8359 2.48438C62.2656 2.48438 62.6758 2.56901 63.0664 2.73828C63.457 2.89453 63.8021 3.1224 64.1016 3.42188C64.401 3.72135 64.6289 4.06641 64.7852 4.45703C64.9544 4.84766 65.0391 5.25781 65.0391 5.6875C65.0391 6.11719 64.9544 6.52734 64.7852 6.91797C64.6289 7.30859 64.401 7.64062 64.1016 7.91406C63.8021 8.20052 63.457 8.42839 63.0664 8.59766C62.6758 8.75391 62.2656 8.83203 61.8359 8.83203ZM59.1211 31.2344C57.8451 31.2344 56.8359 30.8568 56.0938 30.1016C55.2604 29.2682 54.8438 28.0508 54.8438 26.4492C54.8438 25.694 54.9479 24.8216 55.1562 23.832L57.8711 11H63.6328L60.7617 24.5938C60.6576 24.9323 60.6055 25.362 60.6055 25.8828C60.6055 26.4297 60.7292 26.8138 60.9766 27.0352C61.237 27.2565 61.6536 27.3672 62.2266 27.3672C62.6172 27.3672 62.9948 27.2826 63.3594 27.1133C63.737 26.931 64.082 26.6836 64.3945 26.3711C65.0326 25.7331 65.5143 24.8867 65.8398 23.832H67.5195C66.8034 25.8503 65.9049 27.4583 64.8242 28.6562C63.9128 29.6328 62.8841 30.3359 61.7383 30.7656C60.9049 31.0781 60.0326 31.2344 59.1211 31.2344ZM68.9062 9.51562H74.668L74.0234 12.5234C75.3776 11.3776 76.9336 10.8047 78.6914 10.8047C80.1888 10.8047 81.3477 11.2604 82.168 12.1719C83.1055 13.2396 83.5742 14.8867 83.5742 17.1133C83.5742 19.2617 83.3008 21.2799 82.7539 23.168C82.0638 25.5768 81.0612 27.4453 79.7461 28.7734C78.1315 30.4141 76.1263 31.2344 73.7305 31.2344C72.806 31.2344 72.0443 31.0911 71.4453 30.8047C70.9896 30.5964 70.6185 30.2643 70.332 29.8086L68.2617 39.5547L62.2266 41L68.9062 9.51562ZM72.5 27.7578C73.7891 27.7578 74.8958 27.1003 75.8203 25.7852C76.5495 24.7565 77.1354 23.3112 77.5781 21.4492C77.9297 19.9518 78.1055 18.4674 78.1055 16.9961C78.1055 15.681 77.8646 14.7435 77.3828 14.1836C77.0703 13.8451 76.6406 13.6758 76.0938 13.6758C75.612 13.6758 75.1237 13.8451 74.6289 14.1836C74.1341 14.5221 73.7044 15.0104 73.3398 15.6484L70.9766 26.8398C71.0677 27.1003 71.237 27.3216 71.4844 27.5039C71.7448 27.6732 72.0833 27.7578 72.5 27.7578ZM90.293 31.2344C88.3268 31.2344 86.8099 30.7396 85.7422 29.75C84.6094 28.6953 84.043 27.0742 84.043 24.8867C84.043 24.0664 84.1276 23.1549 84.2969 22.1523C84.4531 21.1497 84.694 20.1471 85.0195 19.1445C85.3841 18.0247 85.8464 16.9635 86.4062 15.9609C86.9792 14.9583 87.6432 14.0729 88.3984 13.3047C90.1432 11.5339 92.2917 10.6484 94.8438 10.6484C96.4714 10.6484 97.6562 11.0391 98.3984 11.8203C98.9714 12.4323 99.2578 13.3177 99.2578 14.4766C99.2578 15.6094 99.0104 16.6771 98.5156 17.6797C98.0208 18.6693 97.3372 19.5482 96.4648 20.3164C95.5924 21.0716 94.6029 21.6771 93.4961 22.1328C92.3893 22.5755 91.2435 22.8359 90.0586 22.9141C89.9935 23.5911 89.9609 24.125 89.9609 24.5156C89.9609 25.8177 90.2083 26.7161 90.7031 27.2109C91.1328 27.6536 91.849 27.875 92.8516 27.875C94.2969 27.875 95.6185 27.4844 96.8164 26.7031C97.3242 26.3776 97.8125 25.9935 98.2812 25.5508C98.75 25.0951 99.2969 24.5221 99.9219 23.832H101.289C100.026 25.9674 98.5742 27.6667 96.9336 28.9297C94.9154 30.4661 92.7018 31.2344 90.293 31.2344ZM90.3711 21C91.1133 20.9479 91.8359 20.7331 92.5391 20.3555C93.2422 19.9779 93.8672 19.4831 94.4141 18.8711C94.9609 18.2461 95.3906 17.5495 95.7031 16.7812C96.0156 16 96.1719 15.2057 96.1719 14.3984C96.1719 13.8646 96.0938 13.4609 95.9375 13.1875C95.7943 12.901 95.5404 12.7578 95.1758 12.7578C94.694 12.7578 94.2057 12.9922 93.7109 13.4609C93.2292 13.9297 92.7604 14.5742 92.3047 15.3945C91.888 16.1628 91.5104 17.0352 91.1719 18.0117C90.8333 18.9883 90.5664 19.9844 90.3711 21ZM104.473 31.2344C103.509 31.2344 102.656 31.0911 101.914 30.8047C101.172 30.5052 100.547 30.0951 100.039 29.5742C99.5703 29.0924 99.2188 28.5586 98.9844 27.9727C98.75 27.3737 98.6328 26.7552 98.6328 26.1172C98.6328 25.2448 98.8542 24.457 99.2969 23.7539C99.6875 23.1289 100.176 22.6797 100.762 22.4062C101.803 20.5573 102.708 18.6823 103.477 16.7812C104.245 14.8802 104.98 12.8034 105.684 10.5508L111.602 9.76953C111.758 13.1549 111.901 15.7526 112.031 17.5625C112.161 19.4245 112.272 20.7917 112.363 21.6641C112.441 22.6797 112.48 23.5651 112.48 24.3203C112.48 24.9974 112.428 25.5052 112.324 25.8438C113.522 25.1406 114.479 24.4701 115.195 23.832H116.875C115.924 24.9388 114.941 25.8893 113.926 26.6836C112.923 27.4779 111.868 28.194 110.762 28.832C109.967 29.6654 108.971 30.2839 107.773 30.6875C106.732 31.0521 105.632 31.2344 104.473 31.2344ZM103.203 28.0703C104.206 28.0703 105.007 27.7969 105.605 27.25C106.322 26.599 106.68 25.6354 106.68 24.3594C106.68 23.8255 106.647 23.1549 106.582 22.3477L106.484 21.1562C106.367 20.1276 106.25 18.9362 106.133 17.582L105.918 14.8867C105.54 16.0977 105.091 17.3021 104.57 18.5C104.049 19.6849 103.418 21 102.676 22.4453C103.288 22.7839 103.594 23.2461 103.594 23.832C103.594 24.3529 103.438 24.8021 103.125 25.1797C102.786 25.5964 102.357 25.8047 101.836 25.8047C101.576 25.8047 101.354 25.7721 101.172 25.707C101.003 25.6289 100.866 25.4857 100.762 25.2773C100.762 26.2409 100.951 26.9505 101.328 27.4062C101.706 27.849 102.331 28.0703 103.203 28.0703ZM133.574 3.59766C131.738 4.2487 130.352 5.25781 129.414 6.625C128.49 7.97917 128.027 9.63932 128.027 11.6055C128.027 12.4648 128.118 13.2526 128.301 13.9688C128.496 14.6719 128.763 15.2448 129.102 15.6875C127.383 15.6875 126.12 15.3424 125.312 14.6523C124.505 13.9492 124.102 12.849 124.102 11.3516C124.102 9.5026 124.661 7.7513 125.781 6.09766C126.849 4.52214 128.301 3.2526 130.137 2.28906C132.025 1.32552 134.062 0.84375 136.25 0.84375C136.862 0.84375 137.396 0.889323 137.852 0.980469C138.32 1.05859 138.841 1.19531 139.414 1.39062L144.238 22.7969L148.711 1.07812H152.598L146.074 31H140.547L135.918 11.1562L131.348 31H127.559L133.574 3.59766ZM156.426 31.1562C154.447 31.1562 152.917 30.6745 151.836 29.7109C150.625 28.6432 150.02 27.0221 150.02 24.8477C150.02 24.0273 150.104 23.1224 150.273 22.1328C150.443 21.1302 150.703 20.1211 151.055 19.1055C151.862 16.6836 153.014 14.75 154.512 13.3047C156.322 11.5339 158.477 10.6484 160.977 10.6484C164.401 10.6484 166.113 12.7773 166.113 17.0352V17.0742C166.191 17.1003 166.257 17.1133 166.309 17.1133H166.543C167.428 17.1133 168.477 16.8659 169.688 16.3711C170.755 15.9284 171.764 15.375 172.715 14.7109L173.066 15.8047C172.285 16.625 171.276 17.3216 170.039 17.8945C168.815 18.4674 167.461 18.8776 165.977 19.125C165.82 20.9349 165.469 22.5885 164.922 24.0859C164.375 25.5703 163.672 26.8464 162.812 27.9141C161.966 28.9557 160.996 29.7565 159.902 30.3164C158.809 30.8763 157.65 31.1562 156.426 31.1562ZM158.027 27.5625C158.496 27.5625 158.971 27.3542 159.453 26.9375C159.948 26.5078 160.41 25.9154 160.84 25.1602C161.27 24.4049 161.641 23.5195 161.953 22.5039C162.266 21.4883 162.5 20.401 162.656 19.2422C162.266 19.138 161.986 18.9427 161.816 18.6562C161.66 18.3698 161.582 18.0052 161.582 17.5625C161.582 17.0156 161.693 16.5599 161.914 16.1953C162.135 15.8307 162.441 15.5638 162.832 15.3945C162.78 14.5482 162.643 13.9427 162.422 13.5781C162.305 13.3958 162.155 13.2656 161.973 13.1875C161.803 13.1094 161.582 13.0703 161.309 13.0703C160.41 13.0703 159.531 13.7474 158.672 15.1016C157.878 16.3255 157.227 17.8359 156.719 19.6328C156.224 21.3906 155.977 22.9531 155.977 24.3203C155.977 24.9844 156.009 25.5247 156.074 25.9414C156.152 26.3581 156.276 26.6836 156.445 26.918C156.602 27.1523 156.803 27.3216 157.051 27.4258C157.298 27.5169 157.624 27.5625 158.027 27.5625ZM172.129 31.2344C170.853 31.2344 169.844 30.8568 169.102 30.1016C168.268 29.2682 167.852 28.0508 167.852 26.4492C167.852 25.694 167.956 24.8216 168.164 23.832L170.879 11H176.641L173.77 24.5938C173.691 24.9193 173.652 25.2578 173.652 25.6094C173.652 26.1172 173.737 26.5208 173.906 26.8203C174.102 27.1849 174.414 27.3672 174.844 27.3672C175.573 27.3672 176.23 27.0352 176.816 26.3711C177.285 25.8112 177.695 24.9648 178.047 23.832L180.762 11H186.523L183.652 24.5938C183.509 25.2708 183.438 25.7526 183.438 26.0391C183.438 26.4557 183.548 26.7812 183.77 27.0156C183.991 27.25 184.336 27.3672 184.805 27.3672C185.43 27.3672 186.042 27.1458 186.641 26.7031C187.24 26.2604 187.806 25.6484 188.34 24.8672C188.835 24.151 189.29 23.3177 189.707 22.3672C190.137 21.4167 190.501 20.4336 190.801 19.418C191.087 18.4284 191.309 17.4648 191.465 16.5273C191.634 15.5768 191.719 14.737 191.719 14.0078C191.667 14.125 191.478 14.2227 191.152 14.3008C190.944 14.3659 190.71 14.3984 190.449 14.3984C189.993 14.3984 189.635 14.1771 189.375 13.7344C189.128 13.3568 189.004 12.901 189.004 12.3672C189.004 11.7161 189.212 11.1953 189.629 10.8047C190.046 10.401 190.664 10.1992 191.484 10.1992C192.37 10.1992 193.027 10.5573 193.457 11.2734C193.822 11.8724 194.004 12.6732 194.004 13.6758C194.004 14.7826 193.906 15.9805 193.711 17.2695C193.529 18.5586 193.249 19.8281 192.871 21.0781C191.96 24.0469 190.729 26.3841 189.18 28.0898C187.305 30.1862 185.111 31.2344 182.598 31.2344C181.283 31.2344 180.215 30.9544 179.395 30.3945C178.574 29.8346 178.047 28.9948 177.812 27.875C176.966 29.1641 175.977 30.082 174.844 30.6289C174.036 31.0326 173.132 31.2344 172.129 31.2344Z" fill="black"/>
<path d="M17.832 31.6836C16.6732 31.6836 15.8333 31.3906 15.3125 30.8047C14.9089 30.362 14.707 29.763 14.707 29.0078C14.707 28.4089 14.7982 27.7188 14.9805 26.9375C15.1628 26.1432 15.4297 25.1211 15.7812 23.8711C16.1328 22.6081 16.3932 21.5664 16.5625 20.7461C16.7448 19.9258 16.8359 19.1706 16.8359 18.4805C16.8359 17.6341 16.6602 16.9766 16.3086 16.5078C15.918 16.013 15.293 15.7656 14.4336 15.7656C13.9518 15.7656 13.5091 15.8177 13.1055 15.9219L9.90234 31H4.16016L9.58984 5.55078L15.5078 4.76953L13.5547 14.0078H13.8672C14.6615 14.0078 15.4102 13.7995 16.1133 13.3828C16.8164 12.9531 17.4349 12.3802 17.9688 11.6641C18.4635 10.987 18.8477 10.2383 19.1211 9.41797C19.4076 8.59766 19.5508 7.80339 19.5508 7.03516C19.5508 6.46224 19.4596 5.92188 19.2773 5.41406C19.1081 4.90625 18.8542 4.46354 18.5156 4.08594C17.7474 3.2526 16.6276 2.83594 15.1562 2.83594C13.5286 2.83594 12.0508 3.05729 10.7227 3.5C9.40755 3.92969 8.27474 4.56771 7.32422 5.41406C6.36068 6.26042 5.625 7.28906 5.11719 8.5C4.60938 9.71094 4.35547 11.0651 4.35547 12.5625C4.35547 13.3958 4.44661 14.0599 4.62891 14.5547C4.68099 14.724 4.74609 14.8737 4.82422 15.0039C4.8763 15.0951 4.90234 15.1862 4.90234 15.2773C3.45703 15.2773 2.40234 14.9909 1.73828 14.418C0.996094 13.793 0.625 12.7839 0.625 11.3906C0.625 10.5182 0.813802 9.65885 1.19141 8.8125C1.56901 7.95312 2.10286 7.1263 2.79297 6.33203C3.44401 5.57682 4.21875 4.8737 5.11719 4.22266C6.02865 3.55859 7.01172 2.98568 8.06641 2.50391C10.2799 1.5013 12.4805 1 14.668 1C16.1784 1 17.5065 1.17578 18.6523 1.52734C19.8112 1.86589 20.7812 2.34766 21.5625 2.97266C22.2917 3.55859 22.8385 4.23568 23.2031 5.00391C23.5677 5.75911 23.75 6.5599 23.75 7.40625C23.75 8.68229 23.3789 9.91927 22.6367 11.1172C21.8034 12.4453 20.7357 13.487 19.4336 14.2422C20.4622 14.5547 21.1849 15.056 21.6016 15.7461C21.9922 16.4102 22.1875 17.2435 22.1875 18.2461C22.1875 18.9883 22.1029 19.7826 21.9336 20.6289C21.7643 21.4622 21.5234 22.4518 21.2109 23.5977C20.8594 24.8737 20.6055 25.8503 20.4492 26.5273C20.306 27.1914 20.2344 27.8034 20.2344 28.3633C20.2344 28.9883 20.3711 29.5417 20.6445 30.0234C20.931 30.4922 21.3151 30.8177 21.7969 31C20.1953 31.4557 18.8737 31.6836 17.832 31.6836ZM30.1758 31.2344C28.2096 31.2344 26.6927 30.7396 25.625 29.75C24.4922 28.6953 23.9258 27.0742 23.9258 24.8867C23.9258 24.0664 24.0104 23.1549 24.1797 22.1523C24.3359 21.1497 24.5768 20.1471 24.9023 19.1445C25.2669 18.0247 25.7292 16.9635 26.2891 15.9609C26.862 14.9583 27.526 14.0729 28.2812 13.3047C30.026 11.5339 32.1745 10.6484 34.7266 10.6484C36.3542 10.6484 37.5391 11.0391 38.2812 11.8203C38.8542 12.4323 39.1406 13.3177 39.1406 14.4766C39.1406 15.6094 38.8932 16.6771 38.3984 17.6797C37.9036 18.6693 37.2201 19.5482 36.3477 20.3164C35.4753 21.0716 34.4857 21.6771 33.3789 22.1328C32.2721 22.5755 31.1263 22.8359 29.9414 22.9141C29.8763 23.5911 29.8438 24.125 29.8438 24.5156C29.8438 25.8177 30.0911 26.7161 30.5859 27.2109C31.0156 27.6536 31.7318 27.875 32.7344 27.875C34.1797 27.875 35.5013 27.4844 36.6992 26.7031C37.207 26.3776 37.6953 25.9935 38.1641 25.5508C38.6328 25.0951 39.1797 24.5221 39.8047 23.832H41.1719C39.9089 25.9674 38.457 27.6667 36.8164 28.9297C34.7982 30.4661 32.5846 31.2344 30.1758 31.2344ZM30.2539 21C30.9961 20.9479 31.7188 20.7331 32.4219 20.3555C33.125 19.9779 33.75 19.4831 34.2969 18.8711C34.8438 18.2461 35.2734 17.5495 35.5859 16.7812C35.8984 16 36.0547 15.2057 36.0547 14.3984C36.0547 13.8646 35.9766 13.4609 35.8203 13.1875C35.6771 12.901 35.4232 12.7578 35.0586 12.7578C34.5768 12.7578 34.0885 12.9922 33.5938 13.4609C33.112 13.9297 32.6432 14.5742 32.1875 15.3945C31.7708 16.1628 31.3932 17.0352 31.0547 18.0117C30.7161 18.9883 30.4492 19.9844 30.2539 21ZM45.5273 31.2344C43.5612 31.2344 42.0443 30.7396 40.9766 29.75C39.8438 28.6953 39.2773 27.0742 39.2773 24.8867C39.2773 24.0664 39.362 23.1549 39.5312 22.1523C39.6875 21.1367 39.9349 20.1276 40.2734 19.125C41.0677 16.6901 42.194 14.75 43.6523 13.3047C45.4492 11.5339 47.5781 10.6484 50.0391 10.6484C51.6406 10.6484 52.8255 11.0326 53.5938 11.8008C54.1927 12.4128 54.4922 13.2526 54.4922 14.3203C54.4922 15.2578 54.2839 15.987 53.8672 16.5078C53.4766 16.9896 52.9753 17.2305 52.3633 17.2305C51.9206 17.2305 51.4518 17.0742 50.957 16.7617C51.2826 15.9154 51.4453 15.1276 51.4453 14.3984C51.4453 13.8906 51.3477 13.4935 51.1523 13.207C50.9701 12.9076 50.6966 12.7578 50.332 12.7578C49.5508 12.7578 48.737 13.4479 47.8906 14.8281C47.1224 16.0521 46.4844 17.6081 45.9766 19.4961C45.4557 21.3451 45.1953 23.0182 45.1953 24.5156C45.1953 25.8177 45.4427 26.7161 45.9375 27.2109C46.3672 27.6536 47.0833 27.875 48.0859 27.875C49.5312 27.875 50.8529 27.4844 52.0508 26.7031C52.5586 26.3776 53.0469 25.9935 53.5156 25.5508C53.9844 25.0951 54.5312 24.5221 55.1562 23.832H56.5234C55.2604 25.9674 53.8086 27.6667 52.168 28.9297C50.1497 30.4661 47.9362 31.2344 45.5273 31.2344ZM61.8359 8.83203C61.4062 8.83203 60.9961 8.75391 60.6055 8.59766C60.2148 8.42839 59.8763 8.20052 59.5898 7.91406C59.3034 7.64062 59.0755 7.30859 58.9062 6.91797C58.75 6.52734 58.6719 6.11719 58.6719 5.6875C58.6719 5.25781 58.75 4.84766 58.9062 4.45703C59.0755 4.06641 59.3034 3.72135 59.5898 3.42188C59.8763 3.1224 60.2148 2.89453 60.6055 2.73828C60.9961 2.56901 61.4062 2.48438 61.8359 2.48438C62.2656 2.48438 62.6758 2.56901 63.0664 2.73828C63.457 2.89453 63.8021 3.1224 64.1016 3.42188C64.401 3.72135 64.6289 4.06641 64.7852 4.45703C64.9544 4.84766 65.0391 5.25781 65.0391 5.6875C65.0391 6.11719 64.9544 6.52734 64.7852 6.91797C64.6289 7.30859 64.401 7.64062 64.1016 7.91406C63.8021 8.20052 63.457 8.42839 63.0664 8.59766C62.6758 8.75391 62.2656 8.83203 61.8359 8.83203ZM59.1211 31.2344C57.8451 31.2344 56.8359 30.8568 56.0938 30.1016C55.2604 29.2682 54.8438 28.0508 54.8438 26.4492C54.8438 25.694 54.9479 24.8216 55.1562 23.832L57.8711 11H63.6328L60.7617 24.5938C60.6576 24.9323 60.6055 25.362 60.6055 25.8828C60.6055 26.4297 60.7292 26.8138 60.9766 27.0352C61.237 27.2565 61.6536 27.3672 62.2266 27.3672C62.6172 27.3672 62.9948 27.2826 63.3594 27.1133C63.737 26.931 64.082 26.6836 64.3945 26.3711C65.0326 25.7331 65.5143 24.8867 65.8398 23.832H67.5195C66.8034 25.8503 65.9049 27.4583 64.8242 28.6562C63.9128 29.6328 62.8841 30.3359 61.7383 30.7656C60.9049 31.0781 60.0326 31.2344 59.1211 31.2344ZM68.9062 9.51562H74.668L74.0234 12.5234C75.3776 11.3776 76.9336 10.8047 78.6914 10.8047C80.1888 10.8047 81.3477 11.2604 82.168 12.1719C83.1055 13.2396 83.5742 14.8867 83.5742 17.1133C83.5742 19.2617 83.3008 21.2799 82.7539 23.168C82.0638 25.5768 81.0612 27.4453 79.7461 28.7734C78.1315 30.4141 76.1263 31.2344 73.7305 31.2344C72.806 31.2344 72.0443 31.0911 71.4453 30.8047C70.9896 30.5964 70.6185 30.2643 70.332 29.8086L68.2617 39.5547L62.2266 41L68.9062 9.51562ZM72.5 27.7578C73.7891 27.7578 74.8958 27.1003 75.8203 25.7852C76.5495 24.7565 77.1354 23.3112 77.5781 21.4492C77.9297 19.9518 78.1055 18.4674 78.1055 16.9961C78.1055 15.681 77.8646 14.7435 77.3828 14.1836C77.0703 13.8451 76.6406 13.6758 76.0938 13.6758C75.612 13.6758 75.1237 13.8451 74.6289 14.1836C74.1341 14.5221 73.7044 15.0104 73.3398 15.6484L70.9766 26.8398C71.0677 27.1003 71.237 27.3216 71.4844 27.5039C71.7448 27.6732 72.0833 27.7578 72.5 27.7578ZM90.293 31.2344C88.3268 31.2344 86.8099 30.7396 85.7422 29.75C84.6094 28.6953 84.043 27.0742 84.043 24.8867C84.043 24.0664 84.1276 23.1549 84.2969 22.1523C84.4531 21.1497 84.694 20.1471 85.0195 19.1445C85.3841 18.0247 85.8464 16.9635 86.4062 15.9609C86.9792 14.9583 87.6432 14.0729 88.3984 13.3047C90.1432 11.5339 92.2917 10.6484 94.8438 10.6484C96.4714 10.6484 97.6562 11.0391 98.3984 11.8203C98.9714 12.4323 99.2578 13.3177 99.2578 14.4766C99.2578 15.6094 99.0104 16.6771 98.5156 17.6797C98.0208 18.6693 97.3372 19.5482 96.4648 20.3164C95.5924 21.0716 94.6029 21.6771 93.4961 22.1328C92.3893 22.5755 91.2435 22.8359 90.0586 22.9141C89.9935 23.5911 89.9609 24.125 89.9609 24.5156C89.9609 25.8177 90.2083 26.7161 90.7031 27.2109C91.1328 27.6536 91.849 27.875 92.8516 27.875C94.2969 27.875 95.6185 27.4844 96.8164 26.7031C97.3242 26.3776 97.8125 25.9935 98.2812 25.5508C98.75 25.0951 99.2969 24.5221 99.9219 23.832H101.289C100.026 25.9674 98.5742 27.6667 96.9336 28.9297C94.9154 30.4661 92.7018 31.2344 90.293 31.2344ZM90.3711 21C91.1133 20.9479 91.8359 20.7331 92.5391 20.3555C93.2422 19.9779 93.8672 19.4831 94.4141 18.8711C94.9609 18.2461 95.3906 17.5495 95.7031 16.7812C96.0156 16 96.1719 15.2057 96.1719 14.3984C96.1719 13.8646 96.0938 13.4609 95.9375 13.1875C95.7943 12.901 95.5404 12.7578 95.1758 12.7578C94.694 12.7578 94.2057 12.9922 93.7109 13.4609C93.2292 13.9297 92.7604 14.5742 92.3047 15.3945C91.888 16.1628 91.5104 17.0352 91.1719 18.0117C90.8333 18.9883 90.5664 19.9844 90.3711 21ZM104.473 31.2344C103.509 31.2344 102.656 31.0911 101.914 30.8047C101.172 30.5052 100.547 30.0951 100.039 29.5742C99.5703 29.0924 99.2188 28.5586 98.9844 27.9727C98.75 27.3737 98.6328 26.7552 98.6328 26.1172C98.6328 25.2448 98.8542 24.457 99.2969 23.7539C99.6875 23.1289 100.176 22.6797 100.762 22.4062C101.803 20.5573 102.708 18.6823 103.477 16.7812C104.245 14.8802 104.98 12.8034 105.684 10.5508L111.602 9.76953C111.758 13.1549 111.901 15.7526 112.031 17.5625C112.161 19.4245 112.272 20.7917 112.363 21.6641C112.441 22.6797 112.48 23.5651 112.48 24.3203C112.48 24.9974 112.428 25.5052 112.324 25.8438C113.522 25.1406 114.479 24.4701 115.195 23.832H116.875C115.924 24.9388 114.941 25.8893 113.926 26.6836C112.923 27.4779 111.868 28.194 110.762 28.832C109.967 29.6654 108.971 30.2839 107.773 30.6875C106.732 31.0521 105.632 31.2344 104.473 31.2344ZM103.203 28.0703C104.206 28.0703 105.007 27.7969 105.605 27.25C106.322 26.599 106.68 25.6354 106.68 24.3594C106.68 23.8255 106.647 23.1549 106.582 22.3477L106.484 21.1562C106.367 20.1276 106.25 18.9362 106.133 17.582L105.918 14.8867C105.54 16.0977 105.091 17.3021 104.57 18.5C104.049 19.6849 103.418 21 102.676 22.4453C103.288 22.7839 103.594 23.2461 103.594 23.832C103.594 24.3529 103.438 24.8021 103.125 25.1797C102.786 25.5964 102.357 25.8047 101.836 25.8047C101.576 25.8047 101.354 25.7721 101.172 25.707C101.003 25.6289 100.866 25.4857 100.762 25.2773C100.762 26.2409 100.951 26.9505 101.328 27.4062C101.706 27.849 102.331 28.0703 103.203 28.0703ZM133.574 3.59766C131.738 4.2487 130.352 5.25781 129.414 6.625C128.49 7.97917 128.027 9.63932 128.027 11.6055C128.027 12.4648 128.118 13.2526 128.301 13.9688C128.496 14.6719 128.763 15.2448 129.102 15.6875C127.383 15.6875 126.12 15.3424 125.312 14.6523C124.505 13.9492 124.102 12.849 124.102 11.3516C124.102 9.5026 124.661 7.7513 125.781 6.09766C126.849 4.52214 128.301 3.2526 130.137 2.28906C132.025 1.32552 134.062 0.84375 136.25 0.84375C136.862 0.84375 137.396 0.889323 137.852 0.980469C138.32 1.05859 138.841 1.19531 139.414 1.39062L144.238 22.7969L148.711 1.07812H152.598L146.074 31H140.547L135.918 11.1562L131.348 31H127.559L133.574 3.59766ZM156.426 31.1562C154.447 31.1562 152.917 30.6745 151.836 29.7109C150.625 28.6432 150.02 27.0221 150.02 24.8477C150.02 24.0273 150.104 23.1224 150.273 22.1328C150.443 21.1302 150.703 20.1211 151.055 19.1055C151.862 16.6836 153.014 14.75 154.512 13.3047C156.322 11.5339 158.477 10.6484 160.977 10.6484C164.401 10.6484 166.113 12.7773 166.113 17.0352V17.0742C166.191 17.1003 166.257 17.1133 166.309 17.1133H166.543C167.428 17.1133 168.477 16.8659 169.688 16.3711C170.755 15.9284 171.764 15.375 172.715 14.7109L173.066 15.8047C172.285 16.625 171.276 17.3216 170.039 17.8945C168.815 18.4674 167.461 18.8776 165.977 19.125C165.82 20.9349 165.469 22.5885 164.922 24.0859C164.375 25.5703 163.672 26.8464 162.812 27.9141C161.966 28.9557 160.996 29.7565 159.902 30.3164C158.809 30.8763 157.65 31.1562 156.426 31.1562ZM158.027 27.5625C158.496 27.5625 158.971 27.3542 159.453 26.9375C159.948 26.5078 160.41 25.9154 160.84 25.1602C161.27 24.4049 161.641 23.5195 161.953 22.5039C162.266 21.4883 162.5 20.401 162.656 19.2422C162.266 19.138 161.986 18.9427 161.816 18.6562C161.66 18.3698 161.582 18.0052 161.582 17.5625C161.582 17.0156 161.693 16.5599 161.914 16.1953C162.135 15.8307 162.441 15.5638 162.832 15.3945C162.78 14.5482 162.643 13.9427 162.422 13.5781C162.305 13.3958 162.155 13.2656 161.973 13.1875C161.803 13.1094 161.582 13.0703 161.309 13.0703C160.41 13.0703 159.531 13.7474 158.672 15.1016C157.878 16.3255 157.227 17.8359 156.719 19.6328C156.224 21.3906 155.977 22.9531 155.977 24.3203C155.977 24.9844 156.009 25.5247 156.074 25.9414C156.152 26.3581 156.276 26.6836 156.445 26.918C156.602 27.1523 156.803 27.3216 157.051 27.4258C157.298 27.5169 157.624 27.5625 158.027 27.5625ZM172.129 31.2344C170.853 31.2344 169.844 30.8568 169.102 30.1016C168.268 29.2682 167.852 28.0508 167.852 26.4492C167.852 25.694 167.956 24.8216 168.164 23.832L170.879 11H176.641L173.77 24.5938C173.691 24.9193 173.652 25.2578 173.652 25.6094C173.652 26.1172 173.737 26.5208 173.906 26.8203C174.102 27.1849 174.414 27.3672 174.844 27.3672C175.573 27.3672 176.23 27.0352 176.816 26.3711C177.285 25.8112 177.695 24.9648 178.047 23.832L180.762 11H186.523L183.652 24.5938C183.509 25.2708 183.438 25.7526 183.438 26.0391C183.438 26.4557 183.548 26.7812 183.77 27.0156C183.991 27.25 184.336 27.3672 184.805 27.3672C185.43 27.3672 186.042 27.1458 186.641 26.7031C187.24 26.2604 187.806 25.6484 188.34 24.8672C188.835 24.151 189.29 23.3177 189.707 22.3672C190.137 21.4167 190.501 20.4336 190.801 19.418C191.087 18.4284 191.309 17.4648 191.465 16.5273C191.634 15.5768 191.719 14.737 191.719 14.0078C191.667 14.125 191.478 14.2227 191.152 14.3008C190.944 14.3659 190.71 14.3984 190.449 14.3984C189.993 14.3984 189.635 14.1771 189.375 13.7344C189.128 13.3568 189.004 12.901 189.004 12.3672C189.004 11.7161 189.212 11.1953 189.629 10.8047C190.046 10.401 190.664 10.1992 191.484 10.1992C192.37 10.1992 193.027 10.5573 193.457 11.2734C193.822 11.8724 194.004 12.6732 194.004 13.6758C194.004 14.7826 193.906 15.9805 193.711 17.2695C193.529 18.5586 193.249 19.8281 192.871 21.0781C191.96 24.0469 190.729 26.3841 189.18 28.0898C187.305 30.1862 185.111 31.2344 182.598 31.2344C181.283 31.2344 180.215 30.9544 179.395 30.3945C178.574 29.8346 178.047 28.9948 177.812 27.875C176.966 29.1641 175.977 30.082 174.844 30.6289C174.036 31.0326 173.132 31.2344 172.129 31.2344Z" fill="url(#paint0_linear)"/>
<defs>
<linearGradient id="paint0_linear" x1="97.5" y1="-39" x2="97.5" y2="75" gradientUnits="userSpaceOnUse">
<stop stop-color="white"/>
<stop offset="1" stop-color="white" stop-opacity="0"/>
</linearGradient>
</defs>
</svg>
